<svg xmlns="http://www.w3.org/2000/svg" viewBox="0 0 512 512"><circle cx="256" cy="256" r="256" fill="#4a90d9"/><path d="M256 0C114.6 0 0 114.6 0 256s114.6 256 256 256 256-114.6 256-256S397.4 0 256 0zm-32 480.5C119.2 468.7 32 371.6 32 256c0-17.2 2.1-33.9 6-49.9L160 361.9V384c0 35.3 28.7 64 64 64v32.5zm224.8-72.7C437.8 381.4 410 362.7 378 362.7h-26V288c0-17.7-14.3-32-32-32H192v-64h64c17.7 0 32-14.3 32-32v-64h64c35.3 0 64-28.7 64-64v-13.1c68.4 44.4 112 121.5 112 212.1 0 56.5-18.4 108.7-49.2 150.8z" fill="rgba(255,255,255,0.3)"/></svg>
